<?xml version="1.0" encoding="UTF-8"?>
<svg xmlns="http://www.w3.org/2000/svg" id="Layer_1" data-name="Layer 1" viewBox="0 0 24 24">
  <path d="m12.726,24H0v-13.926c0-.96.433-1.849,1.188-2.439L10.092.658c1.123-.879,2.692-.881,3.815,0l8.906,6.977c.754.592,1.187,1.48,1.187,2.439v2.652c-1.467-1.667-3.61-2.726-6-2.726-4.411,0-8,3.589-8,8,0,2.39,1.059,4.533,2.726,6Zm5.274-12.077c-3.314,0-6,2.686-6,6s2.686,6,6,6,6-2.686,6-6-2.686-6-6-6Zm.619,8.414c-.378.378-.88.586-1.414.586h-.002c-.534,0-1.036-.209-1.413-.587l-2.012-2.012,1.414-1.414,2.013,2.013,3.615-3.615,1.414,1.414-3.615,3.615Z"/>
</svg>
